<svg width="233" height="74" viewBox="0 0 233 74" fill="none" xmlns="http://www.w3.org/2000/svg">
<path d="M67.452 47.872V63.424C67.452 65.128 67.896 66.436 68.784 67.348C69.672 68.236 70.92 68.68 72.528 68.68C74.16 68.68 75.42 68.236 76.308 67.348C77.196 66.436 77.64 65.128 77.64 63.424V47.872H82.716V63.388C82.716 65.524 82.248 67.336 81.312 68.824C80.4 70.288 79.164 71.392 77.604 72.136C76.068 72.88 74.352 73.252 72.456 73.252C70.584 73.252 68.88 72.88 67.344 72.136C65.832 71.392 64.632 70.288 63.744 68.824C62.856 67.336 62.412 65.524 62.412 63.388V47.872H67.452ZM101.842 60.112C103.258 60.376 104.422 61.084 105.334 62.236C106.246 63.388 106.702 64.708 106.702 66.196C106.702 67.54 106.366 68.728 105.694 69.76C105.046 70.768 104.098 71.56 102.85 72.136C101.602 72.712 100.126 73 98.4216 73H87.5856V47.872H97.9536C99.6576 47.872 101.122 48.148 102.346 48.7C103.594 49.252 104.53 50.02 105.154 51.004C105.802 51.988 106.126 53.104 106.126 54.352C106.126 55.816 105.73 57.04 104.938 58.024C104.17 59.008 103.138 59.704 101.842 60.112ZM92.6256 58.24H97.2336C98.4336 58.24 99.3576 57.976 100.006 57.448C100.654 56.896 100.978 56.116 100.978 55.108C100.978 54.1 100.654 53.32 100.006 52.768C99.3576 52.216 98.4336 51.94 97.2336 51.94H92.6256V58.24ZM97.7016 68.896C98.9256 68.896 99.8736 68.608 100.546 68.032C101.242 67.456 101.59 66.64 101.59 65.584C101.59 64.504 101.23 63.664 100.51 63.064C99.7896 62.44 98.8176 62.128 97.5936 62.128H92.6256V68.896H97.7016ZM133.29 47.872L124.074 73H117.954L108.738 47.872H114.138L121.05 67.852L127.926 47.872H133.29ZM141.352 47.872V73H136.312V47.872H141.352ZM155.008 73.252C153.256 73.252 151.672 72.952 150.256 72.352C148.864 71.752 147.76 70.888 146.944 69.76C146.128 68.632 145.708 67.3 145.684 65.764H151.084C151.156 66.796 151.516 67.612 152.164 68.212C152.836 68.812 153.748 69.112 154.9 69.112C156.076 69.112 157 68.836 157.672 68.284C158.344 67.708 158.68 66.964 158.68 66.052C158.68 65.308 158.452 64.696 157.996 64.216C157.54 63.736 156.964 63.364 156.268 63.1C155.596 62.812 154.66 62.5 153.46 62.164C151.828 61.684 150.496 61.216 149.464 60.76C148.456 60.28 147.58 59.572 146.836 58.636C146.116 57.676 145.756 56.404 145.756 54.82C145.756 53.332 146.128 52.036 146.872 50.932C147.616 49.828 148.66 48.988 150.004 48.412C151.348 47.812 152.884 47.512 154.612 47.512C157.204 47.512 159.304 48.148 160.912 49.42C162.544 50.668 163.444 52.42 163.612 54.676H158.068C158.02 53.812 157.648 53.104 156.952 52.552C156.28 51.976 155.38 51.688 154.252 51.688C153.268 51.688 152.476 51.94 151.876 52.444C151.3 52.948 151.012 53.68 151.012 54.64C151.012 55.312 151.228 55.876 151.66 56.332C152.116 56.764 152.668 57.124 153.316 57.412C153.988 57.676 154.924 57.988 156.124 58.348C157.756 58.828 159.088 59.308 160.12 59.788C161.152 60.268 162.04 60.988 162.784 61.948C163.528 62.908 163.9 64.168 163.9 65.728C163.9 67.072 163.552 68.32 162.856 69.472C162.16 70.624 161.14 71.548 159.796 72.244C158.452 72.916 156.856 73.252 155.008 73.252ZM173.309 47.872V73H168.269V47.872H173.309ZM189.953 73.252C187.601 73.252 185.441 72.7 183.473 71.596C181.505 70.492 179.945 68.968 178.793 67.024C177.641 65.056 177.065 62.836 177.065 60.364C177.065 57.916 177.641 55.72 178.793 53.776C179.945 51.808 181.505 50.272 183.473 49.168C185.441 48.064 187.601 47.512 189.953 47.512C192.329 47.512 194.489 48.064 196.433 49.168C198.401 50.272 199.949 51.808 201.077 53.776C202.229 55.72 202.805 57.916 202.805 60.364C202.805 62.836 202.229 65.056 201.077 67.024C199.949 68.968 198.401 70.492 196.433 71.596C194.465 72.7 192.305 73.252 189.953 73.252ZM189.953 68.752C191.465 68.752 192.797 68.416 193.949 67.744C195.101 67.048 196.001 66.064 196.649 64.792C197.297 63.52 197.621 62.044 197.621 60.364C197.621 58.684 197.297 57.22 196.649 55.972C196.001 54.7 195.101 53.728 193.949 53.056C192.797 52.384 191.465 52.048 189.953 52.048C188.441 52.048 187.097 52.384 185.921 53.056C184.769 53.728 183.869 54.7 183.221 55.972C182.573 57.22 182.249 58.684 182.249 60.364C182.249 62.044 182.573 63.52 183.221 64.792C183.869 66.064 184.769 67.048 185.921 67.744C187.097 68.416 188.441 68.752 189.953 68.752ZM228.046 73H223.006L211.594 55.756V73H206.554V47.836H211.594L223.006 65.116V47.836H228.046V73Z" fill="white"/>
<path fill-rule="evenodd" clip-rule="evenodd" d="M20.6681 0.0818394C20.6138 0.136456 20.7233 0.733473 20.9114 1.40873C21.3258 2.89622 21.2541 4.49278 20.7002 6.11604C20.2794 7.34945 20.2424 7.37393 18.2007 7.76961C15.2536 8.3406 12.5559 9.62007 10.3494 11.4933C8.13311 13.3749 7.00119 15.1422 6.29399 17.8246C5.71139 20.0346 5.69968 20.6225 6.20555 22.2411C7.01714 24.8381 8.1197 26.662 10.1725 28.8034C12.3939 31.1207 15.2497 32.7342 18.2077 33.3434C21.1175 33.9425 21.52 34.3429 21.5459 36.6646L21.5588 37.8202H22.2351C22.7425 37.8202 23.0499 37.6954 23.4658 37.3206L24.0203 36.821V35.0202V33.2196L24.6064 33.1087C25.4408 32.9508 26.3907 32.4265 26.8051 31.8951C27.1577 31.4433 27.2884 30.3078 27.0577 29.7017C26.9132 29.3218 26.3187 29.3646 25.873 29.7871C25.3724 30.2616 23.3419 30.5328 22.1487 30.2847C19.6662 29.7686 18.5333 27.6466 19.0784 24.5338C19.3873 22.7693 19.7582 21.8285 20.9474 19.7928C22.009 17.9752 22.9751 17.0371 24.5295 16.3148C25.6065 15.8143 27.6438 15.4923 28.8374 15.6337C31.3496 15.9316 34.5627 18.1223 35.8898 20.4422C36.1713 20.9343 36.1711 20.9379 35.8866 20.5278C35.0896 19.3792 33.1228 17.6684 31.9071 17.0666C29.8539 16.0501 29.413 16.0556 30.9196 17.0787C33.3357 18.7196 34.9095 20.8482 35.6664 23.4987C35.8776 24.238 36.1467 24.8804 36.2645 24.9259C36.3823 24.9715 36.753 24.7903 37.0883 24.5232C39.8441 22.3279 40.1582 16.3752 37.6914 13.0899C36.3108 11.251 34.1448 9.79076 30.9547 8.54862L29.4017 7.94373L27.9823 6.21397C26.1919 4.03204 23.1503 1.1829 21.8856 0.503021C20.8413 -0.0583835 20.8158 -0.0672863 20.6681 0.0818394ZM56.698 8.14644C51.1433 8.56232 46.819 9.82877 45.171 11.5224C44.5489 12.1619 44.3674 12.5651 43.465 15.3129C42.9095 17.0039 41.4627 21.3154 40.2498 24.8937C39.0368 28.4721 37.372 33.4242 36.5504 35.8986C35.6771 38.5277 34.9767 40.3778 34.8652 40.3501C34.6771 40.3035 32.4455 37.6268 29.7919 34.2647C29.045 33.3184 28.4101 32.6091 28.3809 32.6885C28.3519 32.7679 28.4476 33.1879 28.5938 33.6219C29.219 35.4794 29.7199 38.6508 29.6704 40.4391C29.6417 41.4794 29.5534 42.1759 29.4524 42.1608C29.359 42.1469 29.1239 41.6847 28.9297 41.1335C28.7357 40.5826 28.3629 39.7101 28.1015 39.1947C27.5965 38.1995 25.5941 36.0355 25.2768 36.1422C25.1729 36.1771 24.9875 36.5005 24.8646 36.8611C24.4353 38.1207 23.2352 39.0187 21.981 39.0187C21.1825 39.0187 20.5417 38.3957 20.5366 37.6139C20.5311 36.801 20.0107 35.7623 19.2879 35.1221C18.6867 34.5898 18.1637 34.4013 18.1637 34.7168C18.1637 34.7992 18.3625 35.2252 18.6053 35.6633C19.1047 36.5646 19.0629 37.3066 18.5128 37.3066C17.6662 37.3066 13.2607 33.6586 10.966 31.0574C9.45872 29.3488 8.34768 27.8387 7.16585 25.8922C6.42487 24.6722 6.27073 24.4958 6.36715 24.9793C6.81972 27.2458 8.7045 30.267 11.5571 33.2977C13.8788 35.7645 14.6164 36.6747 17.2297 40.2977C20.4814 44.8054 21.7737 47.2361 22.3093 49.8515C22.7899 52.1983 22.6001 54.2486 21.7508 55.8831C21.5062 56.354 21.2767 56.8078 21.2405 56.8917C21.1365 57.1342 22.0869 56.84 22.8445 56.3956C23.8115 55.828 25.2549 54.4855 25.5825 53.8491C25.7338 53.5553 25.8876 53.4052 25.9246 53.5154C26.0259 53.8178 25.1882 55.3821 24.5334 56.1131C22.5386 58.3398 16.7587 58.9738 13.5417 57.3184C12.3517 56.7063 10.8049 55.0688 10.1148 53.6911C9.02177 51.5092 8.99529 49.6133 10.0281 47.5091C10.3012 46.9527 10.5248 46.4752 10.5248 46.448C10.5248 46.4209 10.2992 46.4779 10.0235 46.575C8.93163 46.9589 7.55119 48.8227 7.02733 50.6206C6.86997 51.1609 6.69325 51.477 6.58597 51.41C6.33286 51.2523 5.19008 48.7025 4.86924 47.5793C4.23996 45.3774 4.34487 42.915 5.15392 40.8949C5.39378 40.2958 5.55861 39.7739 5.52008 39.7351C5.36475 39.5786 4.25269 40.4362 3.29409 41.4516C1.26331 43.6028 0 47.0374 0 50.4078C0 53.513 0.808541 56.6644 2.31172 59.4173C4.57743 63.5671 7.49976 66.4187 11.6307 68.511C13.0757 69.2428 15.923 70.3516 16.3525 70.3497C16.4616 70.3492 15.6756 69.8443 14.6055 69.2277C11.7411 67.5774 10.1532 66.3781 8.04467 64.2725C6.24306 62.4734 5.07311 60.8424 4.5866 59.452L4.41616 58.9649L4.71188 59.3603C8.8583 64.9021 11.8056 67.3054 18.4308 70.5478C22.2767 72.4299 25.2362 72.993 31.3197 72.9999C35.4174 73.0045 36.3777 72.8751 36.9657 72.2385C37.1309 72.0598 37.5482 71.1189 37.8931 70.1477C38.2381 69.1764 39.4688 65.7235 40.6279 62.4748C41.7871 59.226 42.8691 56.1442 43.0326 55.6263C43.1959 55.1084 43.5437 54.1068 43.8057 53.4005C44.0674 52.6943 44.7023 50.9222 45.2165 49.4627C45.7307 48.0031 46.6582 45.4221 47.2775 43.7271C47.8968 42.0321 48.8129 39.4896 49.3134 38.0771C49.8138 36.6646 51.1915 32.8508 52.3752 29.6021C53.5589 26.3533 55.0081 22.3469 55.5956 20.699C58.0016 13.9502 58.605 12.3341 59.1924 11.0673C59.531 10.3369 59.7707 9.70156 59.7249 9.65551C59.6792 9.60928 59.2145 9.80497 58.6923 10.0902C57.752 10.6039 55.3386 11.5092 55.2223 11.3919C55.1891 11.3586 56.0232 10.843 57.0759 10.2465C60.4891 8.31201 60.7197 8.01478 58.7722 8.0593C58.0515 8.07573 57.1182 8.11494 56.698 8.14644ZM35.5274 13.5468C36.8033 14.4532 37.7458 16.9324 36.8143 16.9324C36.1317 16.9324 34.7262 14.9331 34.3636 13.4463C34.2524 12.9902 34.2721 12.9654 34.6493 13.0837C34.872 13.1535 35.2672 13.3619 35.5274 13.5468ZM25.1846 16.4239C24.7981 16.6189 24.3491 16.9264 24.1866 17.1073C23.9042 17.4222 23.9135 17.4612 24.4039 18.0247C24.6857 18.3485 25.0488 19.0247 25.2106 19.5278C25.3725 20.0306 25.5706 20.5141 25.6511 20.6021C26.0505 21.0391 28.4753 17.2965 28.321 16.4812C28.2264 15.9815 26.1371 15.9433 25.1846 16.4239ZM36.492 21.6407C36.492 21.7349 36.4179 21.6963 36.3275 21.5551C36.237 21.4138 36.163 21.2212 36.163 21.1271C36.163 21.0329 36.237 21.0714 36.3275 21.2127C36.4179 21.3539 36.492 21.5465 36.492 21.6407ZM36.8221 22.5824C36.816 22.7517 36.7632 22.7226 36.667 22.4968C36.4665 22.0261 36.4665 21.7558 36.667 22.0687C36.7575 22.21 36.8274 22.4411 36.8221 22.5824ZM37.0065 23.0104C37.0065 23.0575 36.9683 23.096 36.9216 23.096C36.8749 23.096 36.8367 23.0575 36.8367 23.0104C36.8367 22.9633 36.8749 22.9248 36.9216 22.9248C36.9683 22.9248 37.0065 22.9633 37.0065 23.0104ZM21.4259 24.773C21.5261 26.1848 22.1917 27.7829 23.0143 28.5871L23.592 29.1518L24.0184 28.7479C24.2528 28.5256 24.4447 28.1925 24.4447 28.0076C24.4447 27.8227 24.0337 27.1619 23.5314 26.5392C23.0292 25.9167 22.3733 25.0028 22.074 24.5085C21.7746 24.0142 21.4879 23.6096 21.4366 23.6096C21.3853 23.6096 21.3806 24.1332 21.4259 24.773ZM26.9344 32.6269C26.737 32.826 26.8121 33.8712 27.0682 34.4895C27.5181 35.5755 28.1713 35.4346 28.1767 34.2506C28.1816 33.1414 27.4162 32.1408 26.9344 32.6269ZM15.7045 34.2212C15.5339 34.4996 15.9191 35.036 16.7483 35.6746C17.5076 36.2595 18.3335 36.4767 18.3335 36.0917C18.3335 35.7126 17.6125 34.8994 16.907 34.4823C16.1209 34.0176 15.8634 33.9618 15.7045 34.2212ZM26.1422 35.3087C26.1422 35.7761 26.4384 36.1081 26.8552 36.1081C27.2286 36.1081 27.2336 36.0369 26.8959 35.5173C26.5153 34.9312 26.1422 34.8281 26.1422 35.3087ZM27.7898 37.0195C27.679 37.3109 28.9328 40.0996 29.2178 40.1955C29.5296 40.3002 29.2492 38.5556 28.8084 37.649C28.4285 36.8673 27.9584 36.5767 27.7898 37.0195ZM7.37499 38.8312C6.8849 39.0444 5.99098 40.1116 5.67082 40.8656C4.97296 42.5103 4.7993 45.3755 5.28242 47.2797C5.47509 48.0392 5.74517 48.1435 5.63942 47.4175C5.50735 46.5093 5.9263 44.1068 6.38056 43.1691C7.28943 41.2924 8.56751 40.046 9.58264 40.046C10.638 40.046 9.59775 38.8437 8.45581 38.7438C8.05332 38.7085 7.56681 38.7479 7.37499 38.8312Z" fill="url(#paint0_linear_941_1325)"/>
<defs>
<linearGradient id="paint0_linear_941_1325" x1="19.9462" y1="7.0197" x2="38.6087" y2="72.917" gradientUnits="userSpaceOnUse">
<stop stop-color="#0043FB"/>
<stop offset="0.572684" stop-color="#0C8FCC"/>
<stop offset="1" stop-color="#017CD9"/>
</linearGradient>
</defs>
</svg>
