<svg width="64" height="74" viewBox="0 0 64 74" fill="none" xmlns="http://www.w3.org/2000/svg">
<g filter="url(#filter0_d_1358_899)">
<path fill-rule="evenodd" clip-rule="evenodd" d="M23.2902 0.0739918C23.2395 0.123371 23.3417 0.66314 23.5173 1.27365C23.904 2.6185 23.8372 4.06196 23.3202 5.52957C22.9274 6.64471 22.8929 6.66684 20.9874 7.02458C18.2367 7.54081 15.7188 8.69759 13.6595 10.3912C11.5909 12.0924 10.5344 13.6902 9.87439 16.1153C9.33063 18.1134 9.3197 18.645 9.79184 20.1084C10.5493 22.4564 11.5784 24.1054 13.4944 26.0414C15.5677 28.1365 18.2331 29.5953 20.9939 30.1461C23.7096 30.6877 24.0853 31.0498 24.1095 33.1488L24.1216 34.1936H24.7528C25.2264 34.1936 25.5133 34.0808 25.9015 33.742L26.4189 33.2903V31.6621V30.0342L26.966 29.9339C27.7447 29.7911 28.6313 29.3172 29.0181 28.8367C29.3472 28.4282 29.4692 27.4016 29.2538 26.8536C29.119 26.5101 28.5642 26.5488 28.1481 26.9308C27.6809 27.3598 25.7858 27.605 24.6721 27.3807C22.3552 26.9141 21.2977 24.9956 21.8065 22.1813C22.0948 20.586 22.441 19.7354 23.5509 17.8949C24.5417 16.2516 25.4434 15.4034 26.8942 14.7504C27.8994 14.2979 29.8009 14.0067 30.9149 14.1346C33.2596 14.4039 36.2585 16.3845 37.4972 18.482C37.7599 18.9269 37.7597 18.9301 37.4942 18.5594C36.7503 17.5209 34.9147 15.9742 33.7799 15.4301C31.8636 14.5111 31.4522 14.516 32.8583 15.4411C35.1133 16.9246 36.5822 18.849 37.2887 21.2454C37.4858 21.9138 37.7369 22.4946 37.8469 22.5358C37.9568 22.5769 38.3028 22.4132 38.6158 22.1717C41.1878 20.1869 41.4809 14.805 39.1787 11.8347C37.8901 10.1722 35.8685 8.85192 32.8911 7.72889L31.4415 7.182L30.1168 5.61811C28.4458 3.64541 25.6069 1.06948 24.4266 0.454786C23.4519 -0.0527851 23.4281 -0.0608342 23.2902 0.0739918ZM56.9181 7.36528C51.7338 7.74127 47.6977 8.88629 46.1596 10.4175C45.5789 10.9957 45.4096 11.3602 44.5673 13.8445C44.0489 15.3734 42.6985 19.2715 41.5665 22.5067C40.4343 25.7419 38.8805 30.2191 38.1137 32.4562C37.2987 34.8333 36.645 36.506 36.5409 36.4809C36.3653 36.4388 34.2825 34.0187 31.8058 30.979C31.1087 30.1235 30.5161 29.4822 30.4889 29.554C30.4618 29.6258 30.5511 30.0055 30.6875 30.3979C31.2711 32.0773 31.7386 34.9445 31.6924 36.5614C31.6656 37.5019 31.5832 38.1316 31.4889 38.118C31.4018 38.1055 31.1823 37.6875 31.0011 37.1892C30.82 36.6911 30.4721 35.9023 30.2281 35.4363C29.7567 34.5365 27.8878 32.5801 27.5917 32.6765C27.4947 32.7081 27.3217 33.0005 27.207 33.3265C26.8063 34.4653 25.6861 35.2772 24.5156 35.2772C23.7703 35.2772 23.1722 34.7139 23.1675 34.0071C23.1624 33.2722 22.6766 32.333 22.002 31.7542C21.441 31.273 20.9528 31.1026 20.9528 31.3878C20.9528 31.4623 21.1383 31.8474 21.3649 32.2435C21.831 33.0584 21.7921 33.7293 21.2786 33.7293C20.4884 33.7293 16.3767 30.4311 14.2349 28.0793C12.8281 26.5346 11.7912 25.1693 10.6881 23.4094C9.99655 22.3064 9.85268 22.1469 9.94268 22.5841C10.3651 24.6332 12.1242 27.3647 14.7866 30.1047C16.9535 32.335 17.6419 33.1579 20.0811 36.4335C23.116 40.5089 24.3222 42.7066 24.822 45.0712C25.2706 47.193 25.0934 49.0466 24.3008 50.5245C24.0725 50.9501 23.8582 51.3605 23.8245 51.4364C23.7274 51.6555 24.6145 51.3896 25.3216 50.9878C26.224 50.4746 27.5712 49.2609 27.877 48.6855C28.0182 48.4199 28.1617 48.2841 28.1963 48.3838C28.2909 48.6572 27.509 50.0715 26.8979 50.7324C25.0361 52.7456 19.6414 53.3188 16.6389 51.8221C15.5282 51.2687 14.0846 49.7883 13.4405 48.5426C12.4203 46.5699 12.3956 44.8559 13.3595 42.9535C13.6145 42.4504 13.8231 42.0187 13.8231 41.994C13.8231 41.9696 13.6126 42.0211 13.3553 42.1089C12.3362 42.456 11.0478 44.141 10.5588 45.7665C10.412 46.2551 10.247 46.5408 10.1469 46.4803C9.91067 46.3377 8.84407 44.0324 8.54462 43.0169C7.95729 41.0261 8.05521 38.7999 8.81032 36.9734C9.0342 36.4318 9.18804 35.96 9.15207 35.9249C9.0071 35.7834 7.96918 36.5588 7.07448 37.4768C5.17909 39.4217 4 42.527 4 45.5741C4 48.3816 4.75464 51.2308 6.1576 53.7197C8.27227 57.4716 10.9998 60.0497 14.8553 61.9415C16.204 62.6031 18.8614 63.6055 19.2623 63.6038C19.3642 63.6034 18.6306 63.1469 17.6318 62.5895C14.9583 61.0974 13.4763 60.0131 11.5084 58.1094C9.82686 56.4828 8.73491 55.0082 8.28082 53.7512L8.12175 53.3108L8.39775 53.6682C12.2677 58.6786 15.0185 60.8514 21.202 63.7829C24.7916 65.4846 27.5538 65.9937 33.2317 65.9999C37.0563 66.0041 37.9525 65.887 38.5014 65.3115C38.6555 65.1499 39.045 64.2993 39.3669 63.4212C39.6889 62.543 40.8375 59.4213 41.9193 56.4841C43.0013 53.5468 44.0112 50.7605 44.1638 50.2923C44.3162 49.824 44.6408 48.9185 44.8853 48.2799C45.1296 47.6414 45.7222 46.0393 46.2021 44.7197C46.682 43.4 47.5477 41.0665 48.1257 39.5341C48.7036 38.0016 49.5587 35.7029 50.0258 34.4258C50.4929 33.1488 51.7788 29.7007 52.8835 26.7635C53.9883 23.8263 55.3409 20.2041 55.8893 18.7142C58.1348 12.6125 58.698 11.1514 59.2462 10.0061C59.5623 9.34572 59.786 8.77128 59.7432 8.72964C59.7006 8.68784 59.2668 8.86477 58.7795 9.12266C57.9019 9.58704 55.6494 10.4056 55.5409 10.2996C55.5098 10.2694 56.2884 9.80329 57.2708 9.26399C60.4565 7.51496 60.6717 7.24624 58.8541 7.28649C58.1814 7.30135 57.3103 7.3368 56.9181 7.36528ZM37.1589 12.2478C38.3497 13.0673 39.2294 15.3087 38.36 15.3087C37.723 15.3087 36.4111 13.5012 36.0727 12.1569C35.9689 11.7446 35.9873 11.7221 36.3393 11.8291C36.5472 11.8922 36.916 12.0806 37.1589 12.2478ZM27.5056 14.849C27.1449 15.0253 26.7258 15.3033 26.5742 15.4669C26.3105 15.7516 26.3193 15.7869 26.777 16.2963C27.04 16.589 27.3789 17.2005 27.5299 17.6552C27.681 18.1099 27.8659 18.547 27.941 18.6266C28.3138 19.0216 30.577 15.638 30.4329 14.9008C30.3447 14.449 28.3946 14.4145 27.5056 14.849ZM38.0592 19.5656C38.0592 19.6507 37.9901 19.6159 37.9056 19.4882C37.8212 19.3605 37.7521 19.1863 37.7521 19.1012C37.7521 19.016 37.8212 19.0509 37.9056 19.1786C37.9901 19.3063 38.0592 19.4804 38.0592 19.5656ZM38.3673 20.4169C38.3616 20.57 38.3123 20.5437 38.2225 20.3395C38.0354 19.914 38.0354 19.6696 38.2225 19.9525C38.307 20.0803 38.3722 20.2892 38.3673 20.4169ZM38.5394 20.8039C38.5394 20.8465 38.5037 20.8813 38.4602 20.8813C38.4166 20.8813 38.381 20.8465 38.381 20.8039C38.381 20.7614 38.4166 20.7265 38.4602 20.7265C38.5037 20.7265 38.5394 20.7614 38.5394 20.8039ZM23.9975 22.3975C24.091 23.674 24.7122 25.1188 25.48 25.8459L26.0192 26.3564L26.4172 25.9912C26.636 25.7903 26.815 25.4891 26.815 25.3219C26.815 25.1547 26.4314 24.5574 25.9626 23.9944C25.494 23.4316 24.8818 22.6053 24.6024 22.1584C24.3229 21.7115 24.0553 21.3457 24.0075 21.3457C23.9596 21.3457 23.9552 21.8191 23.9975 22.3975ZM29.1388 29.4983C28.9546 29.6783 29.0246 30.6233 29.2637 31.1823C29.6835 32.1641 30.2932 32.0367 30.2983 30.9663C30.3029 29.9634 29.5885 29.0588 29.1388 29.4983ZM18.6575 30.9397C18.4983 31.1914 18.8578 31.6764 19.6318 32.2538C20.3405 32.7825 21.1113 32.979 21.1113 32.6308C21.1113 32.2881 20.4384 31.5528 19.7799 31.1758C19.0462 30.7557 18.8058 30.7052 18.6575 30.9397ZM28.3994 31.923C28.3994 32.3456 28.6759 32.6457 29.0648 32.6457C29.4134 32.6457 29.418 32.5813 29.1028 32.1115C28.7476 31.5816 28.3994 31.4885 28.3994 31.923ZM29.9372 33.4697C29.8337 33.7331 31.0039 36.2544 31.27 36.3411C31.561 36.4358 31.2993 34.8585 30.8878 34.0388C30.5332 33.3321 30.0945 33.0694 29.9372 33.4697ZM10.8833 35.1077C10.4259 35.3004 9.59158 36.2653 9.29277 36.947C8.64143 38.4339 8.47935 41.0244 8.93026 42.746C9.11009 43.4327 9.36216 43.527 9.26345 42.8707C9.14019 42.0495 9.53121 39.8774 9.95519 39.0296C10.8035 37.3329 11.9963 36.206 12.9438 36.206C13.9288 36.206 12.9579 35.119 11.8921 35.0286C11.5164 34.9967 11.0624 35.0323 10.8833 35.1077Z" fill="url(#paint0_linear_1358_899)"/>
</g>
<defs>
<filter id="filter0_d_1358_899" x="0" y="0" width="64" height="74" filterUnits="userSpaceOnUse" color-interpolation-filters="sRGB">
<feFlood flood-opacity="0" result="BackgroundImageFix"/>
<feColorMatrix in="SourceAlpha" type="matrix" values="0 0 0 0 0 0 0 0 0 0 0 0 0 0 0 0 0 0 127 0" result="hardAlpha"/>
<feOffset dy="4"/>
<feGaussianBlur stdDeviation="2"/>
<feComposite in2="hardAlpha" operator="out"/>
<feColorMatrix type="matrix" values="0 0 0 0 0 0 0 0 0 0 0 0 0 0 0 0 0 0 0.25 0"/>
<feBlend mode="normal" in2="BackgroundImageFix" result="effect1_dropShadow_1358_899"/>
<feBlend mode="normal" in="SourceGraphic" in2="effect1_dropShadow_1358_899" result="shape"/>
</filter>
<linearGradient id="paint0_linear_1358_899" x1="22.6164" y1="6.34657" x2="39.0363" y2="66.1989" gradientUnits="userSpaceOnUse">
<stop stop-color="#0043FB"/>
<stop offset="0.572684" stop-color="#0C8FCC"/>
<stop offset="1" stop-color="#017CD9"/>
</linearGradient>
</defs>
</svg>
